# xmcd
#
# Track frame offsets:
# 150
# 12365
# 25185
# 37528
# 51660
# 67228
# 80788
# 95835
# 106110
# 119260
# 134725
# 149315
# 167530
# 183028
# 197883
#
# Disc length: 2811 seconds
#
# Revision: 0
# Processed by: cddbd v1.5PL3 Copyright (c) Steve Scherf et al.
# Submitted via: plextools 2.11
#
DISCID=d40af90f
DTITLE=Various Artist - DansBanden 2 [CD1]
DYEAR=1900
DGENRE=Misc
TTITLE0=Vikangarna - Till Mitt Eget Blue Hawaii
TTITLE1=BlackJack - Corrine Corrina
TTITLE2=Leif Bloms - Jag Vill Ha Dig För Mig Själv
TTITLE3=Sven-Ingvars - Gör Det Igen
TTITLE4=Stefan Borsch - En Torkad Ros
TTITLE5=Tonix - Tro Det Om Du Vill
TTITLE6=Thor Görans - Känslor Mellan Två
TTITLE7=Denis King - En Månskenspromenad
TTITLE8=Lasse Stefanz - Ensam I Ett Regn
TTITLE9=Christina Lindberg - Dit Vägarna Bär
TTITLE10=Ingmar Nordströms - Så Länge Jag Lever
TTITLE11=Sten and Stanley - Som Ett Ljus
TTITLE12=Wizex - Solamente
TTITLE13=Matz Bladhs - Mina Drömmars Symfoni
TTITLE14=Lotta and Anders Engbergs Orkester - En Gång Till
EXTD=
EXTT0=
EXTT1=
EXTT2=
EXTT3=
EXTT4=
EXTT5=
EXTT6=
EXTT7=
EXTT8=
EXTT9=
EXTT10=
EXTT11=
EXTT12=
EXTT13=
EXTT14=
PLAYORDER=
